<?xml version="1.0"?>
<svg xmlns="http://www.w3.org/2000/svg" id="filled_outline" data-name="filled outline" viewBox="0 0 512 512" width="512" height="512"><rect x="376" y="248" width="32" height="48" style="fill:#ef5e3b"/><rect x="408" y="232" width="32" height="64" style="fill:#fa8669"/><rect x="440" y="208" width="32" height="88" style="fill:#ffb0a1"/><rect x="144" y="440" width="160" height="56" style="fill:#7148db"/><polygon points="272 360 272 440 248 472 200 472 176 440 176 360 272 360" style="fill:#ffc431"/><polygon points="392 496 364.31 475.08 296 384 296 320 348.19 320.044 398.627 425.373 472.351 496 392 496" style="fill:#7148db"/><path d="M352,316.18994A68.15722,68.15722,0,0,1,348.03,339.12L312,440H272l-24.84009-49.68994a25.89644,25.89644,0,0,0-46.31982,0L176,440H136l-32.24-56.42-23.42993-41A63.21374,63.21374,0,0,1,129.5,248.26q2.81982-.25506,5.71-.26h148.6001A68.18174,68.18174,0,0,1,352,316.18994Z" style="fill:#8760e6"/><path d="M168,312a72.00958,72.00958,0,0,1-64.24,71.58l-23.42993-41A63.21374,63.21374,0,0,1,129.5,248.26,71.97585,71.97585,0,0,1,168,312Z" style="fill:#7148db"/><path d="M192,200v56a32,32,0,0,0,32,32H224a32,32,0,0,0,32-32V200Z" style="fill:#7148db"/><path d="M296,152v88a8,8,0,0,1-8,8H250.52178a8,8,0,0,1-4.5877-1.44615L200,214.3999,168,192V152.94822c0-35.42588,28.37989-64.84281,63.80561-64.94793A63.98244,63.98244,0,0,1,296,152Z" style="fill:#9977ed"/><circle cx="208" cy="144" r="32" style="fill:#08d175"/><circle cx="376" cy="448" r="32" style="fill:#a88af2"/><path d="M416,24a71.99317,71.99317,0,1,0,72,72A72.00575,72.00575,0,0,0,416,24Zm0,104a31.981,31.981,0,1,1,21.48-8.27A32.00409,32.00409,0,0,1,416,128Z" style="fill:#ffc431"/><path d="M488,96H448a32.004,32.004,0,0,0-32-32V24A72.00575,72.00575,0,0,1,488,96Z" style="fill:#ffb401"/><polygon points="80 64 40 64 40 144 104 144 104 88 80 64" style="fill:#08d175"/><circle cx="208" cy="144" r="12" style="fill:#3cde8d"/><polygon points="30.401 467.203 40 496 116.8 496 88 448 128 336 56 312 27.361 433.718 30.401 467.203" style="fill:#8760e6"/><circle cx="96" cy="312" r="40" style="fill:#a88af2"/><circle cx="56" cy="448" r="32" style="fill:#a88af2"/><path d="M488,96a71.80905,71.80905,0,0,1-24.49,54.09l-26.03-30.36A31.94838,31.94838,0,0,0,448,96Z" style="fill:#ffa100"/><path d="M136.22656,361.78125l10.06446,12.4375a80.58889,80.58889,0,0,0,11.92773-11.92725L145.7832,352.2251A64.65051,64.65051,0,0,1,136.22656,361.78125Z"/><path d="M336,208a8.00076,8.00076,0,0,0,5.65723-2.34326l38.28051-38.28052a80.25275,80.25275,0,1,0-13.76855-8.85937L332.68652,192H304V152a72,72,0,0,0-144,0v4.686L132.68652,184H16v16H136a8.00076,8.00076,0,0,0,5.65723-2.34326L160,179.314V192a7.99968,7.99968,0,0,0,3.41211,6.55371L184,212.96521V240H135.21289a71.5484,71.5484,0,0,0-55.78125,26.94946,48.07839,48.07839,0,0,0-31.40527,44.01075L19.75854,431.09753A39.984,39.984,0,0,0,90.6438,467.95605l14.49585,24.15967,13.7207-8.23144L96.80664,447.12793l13.09692-36.67139,19.15015,33.5127A8.00057,8.00057,0,0,0,136,448v48h16V448h19.99976l21.59985,28.7998A8.00229,8.00229,0,0,0,200,480h48a8.00229,8.00229,0,0,0,6.40039-3.2002L276.00024,448H296v48h16V448a8.0012,8.0012,0,0,0,7.53418-5.30908l3.38184-9.46924,13.19238,17.58984a39.99125,39.99125,0,0,0,79.59521,1.99915l42.76221,40.96619,11.06836-11.55372-64.32129-61.61962L359.46875,325.073A75.24151,75.24151,0,0,0,359.01294,304H496V288H480V208a8.00008,8.00008,0,0,0-8-8H440a8.00008,8.00008,0,0,0-8,8v16H408a8.00008,8.00008,0,0,0-8,8v8H376a8.00008,8.00008,0,0,0-8,8v40H354.57178A76.50468,76.50468,0,0,0,304,242.73584V208Zm127.97021-69.70117-16.06079-18.21167A39.83194,39.83194,0,0,0,455.19507,104h24.28711A63.75588,63.75588,0,0,1,463.97021,138.29883ZM416,72a24,24,0,1,1-24,24A24.0275,24.0275,0,0,1,416,72Zm63.48218,16H455.19507A40.12034,40.12034,0,0,0,424,56.80493V32.51782A64.10622,64.10622,0,0,1,479.48218,88ZM352,96a64.08151,64.08151,0,0,1,56-63.48218V56.80493a39.9977,39.9977,0,1,0,27.90967,73.86548l16.07275,18.2251A63.96464,63.96464,0,0,1,352,96Zm96,120h16v72H448V216Zm-32,24h16v48H416V240Zm-32,16h16v32H384ZM288,152v8H259.31348l-11.56494-11.56543a39.94509,39.94509,0,0,0-45.167-44.05762A55.96562,55.96562,0,0,1,288,152Zm-80,16a24,24,0,1,1,24-24A24.0275,24.0275,0,0,1,208,168Zm-32-.028a40.06955,40.06955,0,0,0,24,15.223V204.635l-24-16.8Zm67.41211,86.58166A7.99931,7.99931,0,0,0,248,256a24,24,0,0,1-48,0V224.16528ZM96,280a32,32,0,1,1-32,32A32.03635,32.03635,0,0,1,96,280ZM56,472a24,24,0,1,1,24-24A24.0275,24.0275,0,0,1,56,472Zm32.04541-47.91382a39.93912,39.93912,0,0,0-47.11084-13.1311l16.55127-70.34192a47.92777,47.92777,0,0,0,54.419,16.667ZM196.94409,416h54.11157l8.00025,16H188.94409Zm8-16L208,393.88818a17.88864,17.88864,0,0,1,32,.00049L243.05566,400ZM244,464H204l-12-16h64ZM353.07642,348.77222l28.55127,59.62439A40.56447,40.56447,0,0,0,376,408a40.05038,40.05038,0,0,0-35.6377,21.81616l-10.99462-14.65942ZM392.96973,464.9707a24,24,0,1,1,0-33.9414h.001a23.99949,23.99949,0,0,1-.001,33.9414ZM344,316.189a60.01064,60.01064,0,0,1-3.50684,20.24317L306.3623,432h-29.418l-22.63379-45.26611a33.88766,33.88766,0,0,0-60.6211-.00049L171.05566,432H140.64258L116.9917,390.61023l18.19189-50.93762a47.95116,47.95116,0,0,0-29.95605-74.77344,55.5192,55.5192,0,0,1,22.67993-8.38977,64.05773,64.05773,0,0,1,25.44409,83.93005l14.32813,7.1211A80.10423,80.10423,0,0,0,153.16211,256H184a40,40,0,0,0,80,0h19.81152A60.2565,60.2565,0,0,1,344,316.189ZM250.52148,240,216,215.835V183.19507a40.10564,40.10564,0,0,0,25.89233-17.98877l8.45044,8.45044A8.00076,8.00076,0,0,0,256,176h32v64Z"/><path d="M32,144a8.00008,8.00008,0,0,0,8,8h8v16H64V152H80v16H96V152h8a8.00008,8.00008,0,0,0,8-8v-8h16V120H112v-8h16V96H112V88a8.00035,8.00035,0,0,0-2.34277-5.65674L96,68.686V40H80V56H64V40H48V56H40a8.00008,8.00008,0,0,0-8,8v8H16V88H32v8H16v16H32v8H16v16H32ZM48,72H76.68652L96,91.31348V136H48Z"/><rect x="64" y="88" width="16" height="32"/></svg>
